# xmcd
#
# Track frame offsets:
#	150
#	19085
#	50510
#	79415
#	95930
#	114457
#	129540
#	148632
#	162277
#	173947
#	187900
#	202335
#	221100
#	242055
#
# Disc length: 3291 seconds
#
# Revision: 1
# Processed by: cddbd v1.5.1PL0 Copyright (c) Steve Scherf et al.
# Submitted via: CDex 1.50Beta5
#
DISCID=d40cd90e
DTITLE=さまざまなアーティスト - α波クラシック
DYEAR=1900
DGENRE=
TTITLE0=ヘンデル:愉快なかじ屋
TTITLE1=パッヘルベルのカノン
TTITLE2=ラヴェル:なき王女のためのパヴァーヌ
TTITLE3=フォーレ:シチリア舞曲〜組曲「ペレアスとメリザンド」より
TTITLE4=J.S.バッハ:アリオーソ
TTITLE5=ヨハン・シュトラウスI:ラデツキー行進曲
TTITLE6=バッジーニ:妖精の踊り
TTITLE7=シューマン:トロイメライ〜子供の情景より
TTITLE8=シューベルトのセレナード
TTITLE9=サティ:ジムノペディ第1番
TTITLE10=サティ:グノシェンヌ第1番
TTITLE11=J.S.バッハ:G線上のアリア(管弦楽組曲第3番ニ長調BMV.1068より)
TTITLE12=ドビュッシー:月の光〜ベルガマスク組曲より
TTITLE13=〜波〜
EXTD=
EXTT0=
EXTT1=
EXTT2=
EXTT3=
EXTT4=
EXTT5=
EXTT6=
EXTT7=
EXTT8=
EXTT9=
EXTT10=
EXTT11=
EXTT12=
EXTT13=
PLAYORDER=
